<svg xmlns="http://www.w3.org/2000/svg" xmlns:xlink="http://www.w3.org/1999/xlink"><defs><clipPath id="clip0"><path fill="#fff" d="M0 0h128v24H0z"/></clipPath></defs><symbol id="catenergy-logo"><g clip-path="url(#clip0)" fill="#111"><path d="M1.6 22.05A9.5 9.5 0 010 16.31V7.79a9.63 9.63 0 011.5-5.84C2.6.62 4.3 0 6.81 0c2.5 0 4.1.62 5.1 1.74a7.49 7.49 0 011.51 5.03v2.05h-4.9V6.46c.03-.7-.07-1.4-.3-2.05a1.46 1.46 0 00-.59-.63 1.41 1.41 0 00-.82-.19c-.7 0-1.2.2-1.4.72-.23.73-.33 1.49-.3 2.25v10.98c-.05.74.08 1.48.4 2.15.2.52.7.72 1.4.72s1.1-.2 1.3-.72c.23-.7.33-1.42.3-2.15v-2.46h4.91v2.05a7.98 7.98 0 01-1.5 5.13c-1 1.23-2.7 1.84-5.1 1.84-2.41-.1-4.22-.72-5.22-2.05zM19.33.3h5.7l4.22 23.4h-4.61l-.8-4.93h-3.3l-.8 4.92h-4.72L19.33.31zm4.1 15.4l-1.2-9.14-1.2 9.13h2.4zm9.32-11.5h-3.4V.3h11.91v3.8h-3.4v19.6h-5.1V4.2zM50.38.3h8.81v2.47h-5.7v7.7h4.6v2.35h-4.6v8.62h5.7v2.35h-8.91V.31h.1zM61.8.3H64l6.51 15.5V.3h2.6v23.4h-2l-6.6-16v16H61.8V.3zm14.32 0h8.81v2.47h-5.7v7.7h4.6v2.35h-4.6v8.62h5.7v2.35h-8.81V.31zm11.42 0h4.6a7.87 7.87 0 015.11 1.44c1.1.93 1.6 2.57 1.6 4.72 0 2.98-.9 4.82-2.8 5.44l3.2 11.69h-3.1l-3-10.97h-2.5v10.97h-3.21V.31h.1zm4.4 10.06a4.3 4.3 0 002.9-.82c.6-.51.91-1.54.91-3.08a6.77 6.77 0 00-.3-2.25 2.58 2.58 0 00-1.1-1.24 4.47 4.47 0 00-2.2-.4h-1.4v7.69h1.2v.1zm10.92 11.59a10.57 10.57 0 01-1.4-5.95V8.2c-.03-1.48.14-2.96.5-4.4a5.2 5.2 0 011.9-2.67c1.12-.68 2.41-1 3.7-.92 2.11 0 3.61.5 4.52 1.64a7.98 7.98 0 011.4 5.12v.82h-3v-.71c0-.86-.07-1.72-.2-2.57a2.06 2.06 0 00-.8-1.33 3.04 3.04 0 00-1.91-.51 2.96 2.96 0 00-2 .61 2.3 2.3 0 00-.8 1.64c-.14.92-.2 1.85-.2 2.77v8.72a9.53 9.53 0 00.6 3.9c.4.82 1.2 1.13 2.4 1.13a2.37 2.37 0 002.4-1.23c.53-1.3.77-2.7.7-4.1v-1.65h-2.9V12.1h5.8v11.6h-2l-.3-2.67c-.26.89-.8 1.67-1.55 2.2-.74.55-1.64.81-2.55.77a4.9 4.9 0 01-4.3-2.05zm17.13-6.46L115.08.4h3l3.51 11.28L124.99.4H128l-4.9 15.08v8.2h-3.01v-8.2h-.1z"/></g></symbol><symbol id="logo"><path d="M13.64.02L13.5 0 0 1.4v24.61L13.5 34 27 26.01V1.41L13.64 0zm11.6 25L13.5 31.96 1.77 25.02v-10.1l11.68 6.93.02 1.25-8.02-4.75v1.23l8.04 4.8.02 1.3-8.05-4.76v1.22l8.04 4.81 8.12-4.83V16.9l3.62-2.15v10.26zm0-11.57L22 15.33l-1.48.88-7.06-4.19-.01 1.23 6.04 3.57-.06.03-.13.07-.86.5-4.98-2.95-.01 1.22 3.93 2.33-.93.61-.02.01-2.97-1.74-.01 1.23 1.94 1.13-1.98 1.19L1.8 13.58l11.63-6.96 11.8 6.83zm0-1.22L13.43 5.3 1.77 12.22V2.99L13.5 1.76 25.23 3v9.24z" fill="#666"/></symbol><symbol id="logo_html"><path d="M1.281 21V9.547h1.516v4.703H8.75V9.547h1.516V21H8.75v-5.398H2.797V21H1.28zm14.43 0V10.898h-3.774V9.547h9.079v1.351h-3.79V21h-1.515zm6.82 0V9.547h2.282l2.71 8.11c.25.755.433 1.32.547 1.695.13-.417.334-1.03.61-1.836l2.742-7.97h2.039V21H32v-9.586L28.672 21h-1.367l-3.313-9.75V21h-1.46zm13.313 0V9.547h1.515v10.101H43V21h-7.156zm10.68 0l4.398-11.453h1.633L57.242 21h-1.726l-1.336-3.469h-4.79L48.134 21h-1.61zm3.304-4.703h3.883l-1.195-3.172a31.339 31.339 0 01-.813-2.375 14.588 14.588 0 01-.617 2.188l-1.258 3.359zm13.86 1.664l1.382.18c-.15.953-.539 1.7-1.164 2.242-.62.536-1.383.805-2.289.805-1.135 0-2.05-.37-2.742-1.11-.688-.745-1.031-1.81-1.031-3.195 0-.896.148-1.68.445-2.352.297-.672.747-1.174 1.352-1.508a4.02 4.02 0 011.984-.507c.901 0 1.638.229 2.21.687.574.453.941 1.1 1.102 1.938l-1.367.21c-.13-.557-.362-.976-.695-1.257-.328-.281-.727-.422-1.195-.422-.709 0-1.284.255-1.727.765-.443.506-.664 1.308-.664 2.407 0 1.114.214 1.924.64 2.43.428.505.985.757 1.673.757.552 0 1.013-.169 1.382-.508.37-.338.605-.859.703-1.562zm8 2.016c-.521.442-1.024.755-1.508.937-.48.182-.995.273-1.547.273-.912 0-1.612-.22-2.102-.664-.49-.447-.734-1.018-.734-1.71 0-.407.091-.776.273-1.11.188-.338.43-.61.727-.812.302-.203.64-.357 1.016-.461.275-.073.692-.143 1.25-.211 1.135-.136 1.97-.297 2.507-.485.006-.192.008-.315.008-.367 0-.573-.133-.976-.398-1.21-.36-.319-.894-.477-1.602-.477-.661 0-1.15.117-1.469.351-.312.23-.544.638-.695 1.227l-1.375-.188c.125-.588.33-1.062.617-1.422.287-.364.7-.643 1.242-.835.542-.198 1.17-.297 1.883-.297.709 0 1.284.083 1.727.25.443.166.768.377.976.632.209.25.355.568.438.954.047.24.07.671.07 1.296v1.875c0 1.308.029 2.136.086 2.485.063.344.182.674.36.992h-1.47a2.981 2.981 0 01-.28-1.023zm-.118-3.141c-.51.208-1.276.385-2.297.531-.578.084-.986.177-1.226.281a1.214 1.214 0 00-.75 1.125c0 .375.14.688.422.938.286.25.703.375 1.25.375.541 0 1.023-.117 1.445-.352.422-.24.732-.565.93-.976.15-.318.226-.787.226-1.406v-.516zM80.563 21v-1.047c-.526.823-1.3 1.235-2.32 1.235a3.278 3.278 0 01-1.829-.547c-.552-.365-.982-.873-1.289-1.524-.302-.656-.453-1.409-.453-2.258 0-.828.138-1.578.414-2.25.276-.677.69-1.195 1.242-1.554.552-.36 1.17-.54 1.852-.54.5 0 .945.107 1.336.32.39.21.708.483.953.821v-4.11h1.398V21h-1.305zm-4.446-4.14c0 1.062.224 1.856.672 2.382.448.526.977.79 1.586.79.615 0 1.135-.25 1.563-.75.432-.506.648-1.274.648-2.305 0-1.136-.219-1.97-.656-2.5-.438-.532-.977-.797-1.618-.797-.624 0-1.148.255-1.57.765-.416.51-.625 1.315-.625 2.414zm13.649 1.468l1.453.18c-.23.849-.654 1.508-1.274 1.976-.62.47-1.411.703-2.375.703-1.213 0-2.177-.372-2.89-1.117-.709-.75-1.063-1.8-1.063-3.148 0-1.396.36-2.48 1.078-3.25.72-.771 1.651-1.156 2.797-1.156 1.11 0 2.016.377 2.719 1.132.703.756 1.055 1.818 1.055 3.188 0 .083-.003.208-.008.375H85.07c.052.911.31 1.61.774 2.094.463.484 1.041.726 1.734.726.516 0 .956-.135 1.32-.406.365-.27.654-.703.868-1.297zm-4.618-2.273h4.633c-.062-.698-.24-1.222-.531-1.57-.448-.542-1.029-.813-1.742-.813-.646 0-1.19.216-1.633.648-.438.433-.68 1.01-.727 1.735zM92.992 21v-8.297h1.258v1.164c.26-.406.607-.732 1.04-.976.431-.25.923-.375 1.476-.375.614 0 1.117.127 1.507.382.396.256.675.612.836 1.07.657-.968 1.511-1.452 2.563-1.452.823 0 1.456.229 1.898.687.443.453.664 1.154.664 2.102V21h-1.398v-5.227c0-.562-.047-.966-.141-1.21a1.15 1.15 0 00-.492-.602 1.548 1.548 0 00-.844-.227c-.583 0-1.067.196-1.453.586-.385.386-.578 1.005-.578 1.86V21h-1.406v-5.39c0-.626-.115-1.094-.344-1.407-.229-.312-.604-.469-1.125-.469-.396 0-.763.104-1.101.313a1.778 1.778 0 00-.727.914c-.151.401-.227.98-.227 1.734V21h-1.406zm13.266 3.195l-.156-1.32c.307.083.575.125.804.125.313 0 .563-.052.75-.156.188-.104.341-.25.461-.438.089-.14.232-.49.43-1.047.026-.078.068-.192.125-.343l-3.149-8.313h1.516l1.727 4.805c.224.61.424 1.25.601 1.922a18.98 18.98 0 01.578-1.89l1.774-4.837h1.406l-3.156 8.438c-.339.911-.602 1.539-.789 1.882-.25.464-.537.803-.86 1.016-.323.219-.708.328-1.156.328-.271 0-.573-.057-.906-.172z" fill="#444"/><path d="M149.643.016L149.5 0 136 1.407v24.606L149.5 34l13.5-7.987V1.407L149.643.016zm11.591 25l-11.734 6.94-11.734-6.942V14.93l11.685 6.916.019 1.253-8.016-4.743-.011 1.225 8.046 4.809.02 1.286-8.045-4.758-.01 1.226 8.046 4.808 8.124-4.833V16.91l3.619-2.15-.009 10.256zm0-11.564l-3.219 1.88-1.482.875-7.066-4.187-.011 1.225 6.04 3.573-.053.031-.13.076-.859.492-4.987-2.948-.011 1.225 3.936 2.328-.933.61-.021.012-2.971-1.742-.011 1.225 1.947 1.135-1.987 1.186-11.619-6.872 11.638-6.958 11.799 6.834zm0-1.225L149.44 5.31l-11.674 6.909V2.99L149.5 1.764l11.734 1.226v9.237z" fill="#666"/></symbol></svg>